<svg xmlns="http://www.w3.org/2000/svg" viewBox="0 0 96 96" role="img" aria-label="Demo mentor avatar">
  <rect width="96" height="96" rx="24" fill="#35c7b5"/>
  <path d="M17 32l31-17 31 17-31 17-31-17z" fill="#fff9ed"/>
  <path d="M30 42c5 7 13 11 18 11s13-4 18-11v14c0 10-8 18-18 18s-18-8-18-18V42z" fill="#ffbd4a"/>
  <circle cx="48" cy="43" r="17" fill="#ffd8a8"/>
  <circle cx="42" cy="42" r="3" fill="#25405d"/>
  <circle cx="55" cy="42" r="3" fill="#25405d"/>
  <path d="M41 53c5 4 10 4 15 0" fill="none" stroke="#25405d" stroke-width="4" stroke-linecap="round"/>
  <path d="M74 34v18" stroke="#fff9ed" stroke-width="5" stroke-linecap="round"/>
  <circle cx="74" cy="56" r="5" fill="#fff9ed"/>
</svg>
